<svg width="21" height="19" viewBox="0 0 21 19" fill="none" xmlns="http://www.w3.org/2000/svg">
<path d="M11.4294 0.347688C11.1829 0.125064 10.8486 0 10.5 0C10.1514 0 9.81714 0.125064 9.57063 0.347688L0.369001 8.6603C0.129551 8.88427 -0.00294533 9.18424 4.96923e-05 9.4956C0.00304472 9.80696 0.141291 10.1048 0.385014 10.325C0.628736 10.5452 0.958434 10.67 1.3031 10.6728C1.64776 10.6755 1.97981 10.5558 2.22773 10.3394L2.61289 9.9915V17.8125C2.61289 18.1274 2.75138 18.4295 2.9979 18.6522C3.24442 18.8749 3.57877 19 3.9274 19H6.55644C6.90507 19 7.23943 18.8749 7.48595 18.6522C7.73247 18.4295 7.87096 18.1274 7.87096 17.8125V15.4375C7.87096 15.1225 8.00946 14.8205 8.25598 14.5978C8.5025 14.375 8.83685 14.2499 9.18548 14.2499H11.8145C12.1632 14.2499 12.4975 14.375 12.744 14.5978C12.9905 14.8205 13.129 15.1225 13.129 15.4375V17.8125C13.129 18.1274 13.2675 18.4295 13.5141 18.6522C13.7606 18.8749 14.0949 19 14.4436 19H17.0726C17.4212 19 17.7556 18.8749 18.0021 18.6522C18.2486 18.4295 18.3871 18.1274 18.3871 17.8125V9.9915L18.7723 10.3394C19.0202 10.5558 19.3522 10.6755 19.6969 10.6728C20.0416 10.67 20.3713 10.5452 20.615 10.325C20.8587 10.1048 20.997 9.80696 21 9.4956C21.0029 9.18424 20.8704 8.88427 20.631 8.6603L11.4294 0.347688V0.347688Z" fill="#A7AEBD"/>
</svg>
