<svg width="20" height="20" viewBox="0 0 20 20" fill="none" xmlns="http://www.w3.org/2000/svg">
<path d="M20 6.25C20 5.91848 19.8495 5.60054 19.5816 5.36612C19.3137 5.1317 18.9503 5 18.5714 5C18.1925 5 17.8292 5.1317 17.5613 5.36612C17.2934 5.60054 17.1429 5.91848 17.1429 6.25L17.1429 13.75C17.1429 14.0815 17.2934 14.3995 17.5613 14.6339C17.8292 14.8683 18.1925 15 18.5714 15C18.9503 15 19.3137 14.8683 19.5816 14.6339C19.8495 14.3995 20 14.0815 20 13.75L20 6.25ZM14.2857 2.5C14.6646 2.5 15.028 2.6317 15.2959 2.86612C15.5638 3.10054 15.7143 3.41848 15.7143 3.75L15.7143 16.25C15.7143 16.5815 15.5638 16.8995 15.2959 17.1339C15.028 17.3683 14.6646 17.5 14.2857 17.5C13.9068 17.5 13.5435 17.3683 13.2756 17.1339C13.0077 16.8995 12.8571 16.5815 12.8571 16.25L12.8571 3.75C12.8571 3.41848 13.0077 3.10054 13.2756 2.86612C13.5435 2.6317 13.9068 2.5 14.2857 2.5ZM8.57143 -4.99559e-07C9.32919 -4.66436e-07 10.0559 0.263392 10.5917 0.732233C11.1276 1.20107 11.4286 1.83696 11.4286 2.5L11.4286 17.5C11.4286 18.163 11.1276 18.7989 10.5917 19.2678C10.0559 19.7366 9.32919 20 8.57143 20L2.85714 20C2.09938 20 1.37266 19.7366 0.836837 19.2678C0.301019 18.7989 -7.93932e-07 18.163 -7.64949e-07 17.5L-1.09278e-07 2.5C-8.0296e-08 1.83696 0.301019 1.20107 0.836838 0.732232C1.37266 0.263391 2.09938 -7.82461e-07 2.85714 -7.49338e-07L8.57143 -4.99559e-07Z" fill="#4F5E7B"/>
</svg>
