<svg width="20" height="20" viewBox="0 0 20 20" fill="none" xmlns="http://www.w3.org/2000/svg">
<path fill-rule="evenodd" clip-rule="evenodd" d="M5 5V3.75C5 2.75544 5.39509 1.80161 6.09835 1.09835C6.80161 0.395088 7.75544 0 8.75 0H11.25C12.2446 0 13.1984 0.395088 13.9017 1.09835C14.6049 1.80161 15 2.75544 15 3.75V5H17.5C18.163 5 18.7989 5.26339 19.2678 5.73223C19.7366 6.20107 20 6.83696 20 7.5V11.9625C16.7995 13.1484 13.4131 13.7537 10 13.75C6.58687 13.7538 3.20046 13.1485 0 11.9625V7.5C0 6.83696 0.263392 6.20107 0.732233 5.73223C1.20107 5.26339 1.83696 5 2.5 5H5ZM7.5 3.75C7.5 3.41848 7.6317 3.10054 7.86612 2.86612C8.10054 2.6317 8.41848 2.5 8.75 2.5H11.25C11.5815 2.5 11.8995 2.6317 12.1339 2.86612C12.3683 3.10054 12.5 3.41848 12.5 3.75V5H7.5V3.75ZM8.75 10C8.75 9.66848 8.8817 9.35054 9.11612 9.11612C9.35054 8.8817 9.66848 8.75 10 8.75H10.0125C10.344 8.75 10.662 8.8817 10.8964 9.11612C11.1308 9.35054 11.2625 9.66848 11.2625 10C11.2625 10.3315 11.1308 10.6495 10.8964 10.8839C10.662 11.1183 10.344 11.25 10.0125 11.25H10C9.66848 11.25 9.35054 11.1183 9.11612 10.8839C8.8817 10.6495 8.75 10.3315 8.75 10Z" fill="#4F5E7B"/>
<path d="M0 14.6151V17.5001C0 18.1631 0.263392 18.799 0.732233 19.2678C1.20107 19.7367 1.83696 20.0001 2.5 20.0001H17.5C18.163 20.0001 18.7989 19.7367 19.2678 19.2678C19.7366 18.799 20 18.1631 20 17.5001V14.6151C16.7779 15.701 13.4001 16.2533 10 16.2501C6.505 16.2501 3.14125 15.6751 0 14.6151Z" fill="#4F5E7B"/>
</svg>
