<svg width="16" height="17" viewBox="0 0 16 17" fill="none" xmlns="http://www.w3.org/2000/svg">
<path d="M5.06622 6C5.49322 5.02917 6.64511 4.33333 8 4.33333C9.71889 4.33333 11.1111 5.4525 11.1111 6.83333C11.1111 8 10.1171 8.97917 8.77311 9.25583C8.35156 9.3425 8 9.70583 8 10.1667M8 12.6667H8.00778M15 8.5C15 9.48491 14.8189 10.4602 14.4672 11.3701C14.1154 12.2801 13.5998 13.1069 12.9497 13.8033C12.2997 14.4997 11.5281 15.0522 10.6788 15.4291C9.82951 15.806 8.91925 16 8 16C7.08075 16 6.1705 15.806 5.32122 15.4291C4.47194 15.0522 3.70026 14.4997 3.05025 13.8033C2.40024 13.1069 1.88463 12.2801 1.53284 11.3701C1.18106 10.4602 1 9.48491 1 8.5C1 6.51088 1.7375 4.60322 3.05025 3.1967C4.36301 1.79018 6.14348 1 8 1C9.85652 1 11.637 1.79018 12.9497 3.1967C14.2625 4.60322 15 6.51088 15 8.5Z" stroke="#44444F" stroke-width="2" stroke-linecap="round" stroke-linejoin="round"/>
</svg>
