<svg width="17" height="17" viewBox="0 0 17 17" fill="none" xmlns="http://www.w3.org/2000/svg">
<path d="M14.3333 7.66667H2.66667M14.3333 7.66667C14.7754 7.66667 15.1993 7.84226 15.5118 8.15482C15.8244 8.46738 16 8.89131 16 9.33333V14.3333C16 14.7754 15.8244 15.1993 15.5118 15.5118C15.1993 15.8244 14.7754 16 14.3333 16H2.66667C2.22464 16 1.80072 15.8244 1.48816 15.5118C1.17559 15.1993 1 14.7754 1 14.3333V9.33333C1 8.89131 1.17559 8.46738 1.48816 8.15482C1.80072 7.84226 2.22464 7.66667 2.66667 7.66667M14.3333 7.66667V6C14.3333 5.55797 14.1577 5.13405 13.8452 4.82149C13.5326 4.50893 13.1087 4.33333 12.6667 4.33333M2.66667 7.66667V6C2.66667 5.55797 2.84226 5.13405 3.15482 4.82149C3.46738 4.50893 3.89131 4.33333 4.33333 4.33333M12.6667 4.33333V2.66667C12.6667 2.22464 12.4911 1.80072 12.1785 1.48816C11.866 1.17559 11.442 1 11 1H6C5.55797 1 5.13405 1.17559 4.82149 1.48816C4.50893 1.80072 4.33333 2.22464 4.33333 2.66667V4.33333M12.6667 4.33333H4.33333" stroke="#44444F" stroke-width="2" stroke-linecap="round" stroke-linejoin="round"/>
</svg>
