<svg width="19" height="20" viewBox="0 0 19 20" fill="none" xmlns="http://www.w3.org/2000/svg">
<path d="M16.7587 10.98C16.7977 10.66 16.827 10.34 16.827 10C16.827 9.66 16.7977 9.34 16.7587 9.02L18.8194 7.37C19.005 7.22 19.0538 6.95 18.9366 6.73L16.9833 3.27C16.8954 3.11 16.7294 3.02 16.5536 3.02C16.495 3.02 16.4364 3.03 16.3875 3.05L13.9557 4.05C13.4478 3.65 12.9009 3.32 12.3051 3.07L11.934 0.42C11.9047 0.18 11.6996 0 11.4555 0H7.54886C7.30469 0 7.0996 0.18 7.0703 0.42L6.69917 3.07C6.10341 3.32 5.55649 3.66 5.04863 4.05L2.61677 3.05C2.55817 3.03 2.49957 3.02 2.44097 3.02C2.27494 3.02 2.10891 3.11 2.02101 3.27L0.0677127 6.73C-0.0592519 6.95 -0.000652701 7.22 0.184911 7.37L2.24564 9.02C2.20658 9.34 2.17728 9.67 2.17728 10C2.17728 10.33 2.20658 10.66 2.24564 10.98L0.184911 12.63C-0.000652701 12.78 -0.0494854 13.05 0.0677127 13.27L2.02101 16.73C2.10891 16.89 2.27494 16.98 2.45074 16.98C2.50934 16.98 2.56794 16.97 2.61677 16.95L5.04863 15.95C5.55649 16.35 6.10341 16.68 6.69917 16.93L7.0703 19.58C7.0996 19.82 7.30469 20 7.54886 20H11.4555C11.6996 20 11.9047 19.82 11.934 19.58L12.3051 16.93C12.9009 16.68 13.4478 16.34 13.9557 15.95L16.3875 16.95C16.4461 16.97 16.5047 16.98 16.5633 16.98C16.7294 16.98 16.8954 16.89 16.9833 16.73L18.9366 13.27C19.0538 13.05 19.005 12.78 18.8194 12.63L16.7587 10.98ZM14.8249 9.27C14.864 9.58 14.8737 9.79 14.8737 10C14.8737 10.21 14.8542 10.43 14.8249 10.73L14.6882 11.86L15.5574 12.56L16.6122 13.4L15.9285 14.61L14.6882 14.1L13.6725 13.68L12.7935 14.36C12.3735 14.68 11.9731 14.92 11.5727 15.09L10.5374 15.52L10.3811 16.65L10.1858 18H8.8185L8.63294 16.65L8.47667 15.52L7.44142 15.09C7.02146 14.91 6.6308 14.68 6.24014 14.38L5.35139 13.68L4.31614 14.11L3.0758 14.62L2.39214 13.41L3.44692 12.57L4.31614 11.87L4.17941 10.74C4.15011 10.43 4.13058 10.2 4.13058 10C4.13058 9.8 4.15011 9.57 4.17941 9.27L4.31614 8.14L3.44692 7.44L2.39214 6.6L3.0758 5.39L4.31614 5.9L5.33186 6.32L6.21084 5.64C6.6308 5.32 7.03123 5.08 7.43166 4.91L8.46691 4.48L8.62317 3.35L8.8185 2H10.176L10.3616 3.35L10.5179 4.48L11.5531 4.91C11.9731 5.09 12.3637 5.32 12.7544 5.62L13.6432 6.32L14.6784 5.89L15.9188 5.38L16.6024 6.59L15.5574 7.44L14.6882 8.14L14.8249 9.27ZM9.50216 6C7.34376 6 5.59555 7.79 5.59555 10C5.59555 12.21 7.34376 14 9.50216 14C11.6606 14 13.4088 12.21 13.4088 10C13.4088 7.79 11.6606 6 9.50216 6ZM9.50216 12C8.42784 12 7.54886 11.1 7.54886 10C7.54886 8.9 8.42784 8 9.50216 8C10.5765 8 11.4555 8.9 11.4555 10C11.4555 11.1 10.5765 12 9.50216 12Z" fill="#44444F"/>
</svg>
