<svg width="17" height="15" viewBox="0 0 17 15" fill="none" xmlns="http://www.w3.org/2000/svg">
<path d="M1.06332 0C0.781307 0 0.510849 0.112882 0.311438 0.313814C0.112028 0.514746 0 0.787268 0 1.07143C0 1.35559 0.112028 1.62811 0.311438 1.82904C0.510849 2.02997 0.781307 2.14286 1.06332 2.14286H12.7598C13.0418 2.14286 13.3123 2.02997 13.5117 1.82904C13.7111 1.62811 13.8231 1.35559 13.8231 1.07143C13.8231 0.787268 13.7111 0.514746 13.5117 0.313814C13.3123 0.112882 13.0418 0 12.7598 0H1.06332ZM1.06332 4.28571C0.781307 4.28571 0.510849 4.3986 0.311438 4.59953C0.112028 4.80046 0 5.07298 0 5.35714C0 5.6413 0.112028 5.91383 0.311438 6.11476C0.510849 6.31569 0.781307 6.42857 1.06332 6.42857H6.3799C6.66191 6.42857 6.93237 6.31569 7.13178 6.11476C7.33119 5.91383 7.44322 5.6413 7.44322 5.35714C7.44322 5.07298 7.33119 4.80046 7.13178 4.59953C6.93237 4.3986 6.66191 4.28571 6.3799 4.28571H1.06332ZM1.06332 8.57143C0.781307 8.57143 0.510849 8.68431 0.311438 8.88524C0.112028 9.08617 0 9.3587 0 9.64286C0 9.92702 0.112028 10.1995 0.311438 10.4005C0.510849 10.6014 0.781307 10.7143 1.06332 10.7143H5.31658C5.59859 10.7143 5.86905 10.6014 6.06846 10.4005C6.26787 10.1995 6.3799 9.92702 6.3799 9.64286C6.3799 9.3587 6.26787 9.08617 6.06846 8.88524C5.86905 8.68431 5.59859 8.57143 5.31658 8.57143H1.06332ZM11.6965 13.9286C11.6965 14.2127 11.8085 14.4853 12.0079 14.6862C12.2073 14.8871 12.4778 15 12.7598 15C13.0418 15 13.3123 14.8871 13.5117 14.6862C13.7111 14.4853 13.8231 14.2127 13.8231 13.9286V7.94357L15.198 9.32893C15.3985 9.5241 15.6671 9.63209 15.9459 9.62965C16.2247 9.62721 16.4914 9.51453 16.6886 9.31588C16.8857 9.11723 16.9975 8.8485 17 8.56757C17.0024 8.28665 16.8952 8.016 16.7015 7.81393L13.5116 4.59964C13.3122 4.39878 13.0418 4.28594 12.7598 4.28594C12.4778 4.28594 12.2074 4.39878 12.008 4.59964L8.81808 7.81393C8.71653 7.91276 8.63552 8.03099 8.57979 8.16171C8.52407 8.29243 8.49473 8.43302 8.49351 8.57528C8.49228 8.71755 8.51918 8.85863 8.57265 8.99031C8.62611 9.12198 8.70507 9.24161 8.8049 9.34221C8.90474 9.44281 9.02346 9.52236 9.15414 9.57624C9.28482 9.63011 9.42484 9.65722 9.56602 9.65598C9.70721 9.65475 9.84674 9.62519 9.97647 9.56904C10.1062 9.51288 10.2235 9.43126 10.3216 9.32893L11.6965 7.94357V13.9286Z" fill="#44444F"/>
</svg>
