<svg width="16" height="17" viewBox="0 0 16 17" fill="none" xmlns="http://www.w3.org/2000/svg">
<path d="M4.15246 15.1667L7.11655 15.95C7.24186 15.9833 7.37032 16 7.49879 16H10.6646C10.9576 16.0001 11.2447 15.914 11.4939 15.7512C11.7431 15.5884 11.9444 15.3554 12.0754 15.0783L14.8338 9.245C14.9538 8.9909 15.0105 8.70857 14.9984 8.4248C14.9863 8.14104 14.9058 7.86525 14.7645 7.62364C14.6232 7.38202 14.4259 7.18259 14.1913 7.04427C13.9566 6.90595 13.6925 6.83334 13.4238 6.83333H9.66925V2.66667C9.66925 2.22464 9.50318 1.80072 9.20758 1.48816C8.91198 1.17559 8.51107 1 8.09302 1H8.01815C7.6241 1 7.30491 1.3375 7.30491 1.75417C7.30491 2.34917 7.13862 2.93083 6.82574 3.42583L4.15246 7.66667V15.1667ZM4.15246 15.1667H2.57623C2.15819 15.1667 1.75727 14.9911 1.46167 14.6785C1.16607 14.366 1 13.942 1 13.5V8.5C1 8.05797 1.16607 7.63405 1.46167 7.32149C1.75727 7.00893 2.15819 6.83333 2.57623 6.83333H4.54651" stroke="#44444F" stroke-width="2" stroke-linecap="round" stroke-linejoin="round"/>
</svg>
