<svg width="17" height="17" viewBox="0 0 17 17" fill="none" xmlns="http://www.w3.org/2000/svg">
<path d="M16 16L13.1728 13.1005M8.10078 5.03351V8.05865M8.10078 8.05865V11.0838M8.10078 8.05865H11.144M8.10078 8.05865H5.05759M15.2016 8.05865C15.2016 8.9856 15.0179 9.90348 14.661 10.7599C14.3042 11.6163 13.7812 12.3944 13.1218 13.0499C12.4624 13.7053 11.6796 14.2253 10.8181 14.58C9.95662 14.9347 9.03327 15.1173 8.10078 15.1173C7.16829 15.1173 6.24493 14.9347 5.38343 14.58C4.52192 14.2253 3.73914 13.7053 3.07977 13.0499C2.4204 12.3944 1.89736 11.6163 1.54051 10.7599C1.18367 9.90348 1 8.9856 1 8.05865C1 6.18658 1.74812 4.39118 3.07977 3.06743C4.41142 1.74368 6.21754 1 8.10078 1C9.98402 1 11.7901 1.74368 13.1218 3.06743C14.4534 4.39118 15.2016 6.18658 15.2016 8.05865Z" stroke="#44444F" stroke-width="2" stroke-linecap="round" stroke-linejoin="round"/>
</svg>
